<svg xmlns="http://www.w3.org/2000/svg" viewBox="0 0 64 64">
  <defs>
    <linearGradient id="bg" x1="8" x2="56" y1="6" y2="58">
      <stop offset="0" stop-color="#0e7490" />
      <stop offset="0.55" stop-color="#0f172a" />
      <stop offset="1" stop-color="#86198f" />
    </linearGradient>
    <linearGradient id="stroke" x1="12" x2="54" y1="10" y2="56">
      <stop offset="0" stop-color="#67e8f9" />
      <stop offset="1" stop-color="#f0abfc" />
    </linearGradient>
    <filter id="glow" x="-40%" y="-40%" width="180%" height="180%">
      <feGaussianBlur stdDeviation="3" result="blur" />
      <feMerge>
        <feMergeNode in="blur" />
        <feMergeNode in="SourceGraphic" />
      </feMerge>
    </filter>
  </defs>
  <rect width="64" height="64" rx="16" fill="#020617" />
  <rect x="8" y="8" width="48" height="48" rx="12" fill="url(#bg)" />
  <rect
    x="8.5"
    y="8.5"
    width="47"
    height="47"
    rx="11.5"
    fill="none"
    stroke="url(#stroke)"
    stroke-opacity="0.82"
  />
  <path
    d="M35.2 18.5v17.6c0 6.1-3.9 9.8-9.8 9.8-3.1 0-5.9-1.2-7.8-3.2l3.6-4.5c1.2 1.3 2.5 2 4.1 2 2.2 0 3.6-1.5 3.6-4.4V18.5h6.3Z"
    fill="#ecfeff"
    filter="url(#glow)"
  />
  <path
    d="M42.5 18.5h4.4v27h-4.4z"
    fill="#67e8f9"
    opacity="0.78"
  />
</svg>
